# xmcd
#
# Track frame offsets: 
#        183
#        18183
#        34800
#        51505
#        61188
#        77203
#        86058
#        101255
#        112948
#        127473
#        139243
#        152445
#        170050
#        182625
#        198613
#        214390
#        232245
#        243665
#        261900
#        283678
#        294025
#        305118
#
# Disc length: 4320 seconds
#
# Revision: 0
# Processed by: cddbd v1.5.2PL0 Copyright (c) Steve Scherf et al.
# Submitted via: ExactAudioCopyFreeDBPlugin 1.0
#
DISCID=4f10de16
DTITLE=Doc Watson, Clint Howard and Fred Price - Old Timey Concert
DYEAR=1977
DGENRE=Bluegrass
TTITLE0=New River Train
TTITLE1=What Does The Deep Sea Say
TTITLE2=Sunny Tennessee
TTITLE3=Walkin' In Jerusalem
TTITLE4=Sittin' On Top Of The World
TTITLE5=Pretty Little Pink
TTITLE6=Sears-Roebuck Routine
TTITLE7=My Home's Across The Blue Ridge Mountains
TTITLE8=Slewfoot
TTITLE9=Little Orphan Girl
TTITLE10=Long Journey Home
TTITLE11=Rank Stranger
TTITLE12=Crawdad
TTITLE13=There's More Pretty Girls Than One
TTITLE14=My Mama's Gone (Gambler's Yodel)
TTITLE15=Fire On The Mountain (Instrumental)
TTITLE16=Eastbound Train
TTITLE17=Reuben's Train
TTITLE18=On The Banks Of The Old Tennessee
TTITLE19=Mountain Dew
TTITLE20=Corinna Corinna
TTITLE21=Footprints In The Snow
EXTD=
EXTT0=
EXTT1=
EXTT2=
EXTT3=
EXTT4=
EXTT5=
EXTT6=
EXTT7=
EXTT8=
EXTT9=
EXTT10=
EXTT11=
EXTT12=
EXTT13=
EXTT14=
EXTT15=
EXTT16=
EXTT17=
EXTT18=
EXTT19=
EXTT20=
EXTT21=
PLAYORDER=
